<?xml version="1.0" encoding="UTF-8"?>
<svg version="1.1" xmlns="http://www.w3.org/2000/svg" width="300" height="114">
<path d="M0 0 C1.32 0.33 2.64 0.66 4 1 C0.93908516 7.95662464 -3.29790592 13.8185675 -7.7578125 19.92578125 C-11.37862988 24.75402515 -11.37862988 24.75402515 -12.31884766 30.47143555 C-12.33871735 31.37214279 -12.35858704 32.27285004 -12.37905884 33.20085144 C-12.39638565 34.65410576 -12.39638565 34.65410576 -12.4140625 36.13671875 C-12.43342865 37.13129593 -12.4527948 38.12587311 -12.4727478 39.15058899 C-12.53256159 42.3294719 -12.57893639 45.50839098 -12.625 48.6875 C-12.6631781 50.84181273 -12.70222973 52.99611017 -12.7421875 55.15039062 C-12.83826451 60.43345809 -12.92330674 65.71661753 -13 71 C-15.64 71 -18.28 71 -21 71 C-21.268125 71.86625 -21.53625 72.7325 -21.8125 73.625 C-24.85869565 82.2826087 -24.85869565 82.2826087 -28.1875 84.375 C-28.785625 84.58125 -29.38375 84.7875 -30 85 C-30.14285714 77.57142857 -30.14285714 77.57142857 -29 74 C-28.34 74 -27.68 74 -27 74 C-27.33 73.34 -27.66 72.68 -28 72 C-30.71446979 71.68758545 -33.33909361 71.48663408 -36.0625 71.375 C-36.82111328 71.33632812 -37.57972656 71.29765625 -38.36132812 71.2578125 C-40.24047195 71.16326438 -42.12020336 71.08053244 -44 71 C-44.27585937 71.73734375 -44.55171875 72.4746875 -44.8359375 73.234375 C-48.12334714 81.04473078 -53.89655576 88.18523218 -60 94 C-60.66 94 -61.32 94 -62 94 C-62 94.66 -62 95.32 -62 96 C-64.64 96 -67.28 96 -70 96 C-70 95.34 -70 94.68 -70 94 C-68.75146711 92.84728475 -67.45031062 91.75104998 -66.125 90.6875 C-62.9896473 88.03962263 -60.99769909 86.11550873 -60 82 C-59.34 82 -58.68 82 -58 82 C-57.731875 81.29875 -57.46375 80.5975 -57.1875 79.875 C-55.9318551 76.8350176 -54.49764877 73.9272226 -53 71 C-56.3 71 -59.6 71 -63 71 C-63 63.74 -63 56.48 -63 49 C-64.28242874 48.35878563 -65.57364533 47.73468904 -66.875 47.1328125 C-67.57625 46.80023438 -68.2775 46.46765625 -69 46.125 C-69.70125 45.79757813 -70.4025 45.47015625 -71.125 45.1328125 C-73 44 -73 44 -75 41 C-74.67426132 37.75538728 -73.45558692 36.02382891 -71.1875 33.75 C-70.68605469 33.22921875 -70.18460937 32.7084375 -69.66796875 32.171875 C-68 31 -68 31 -64 31 C-63.67 28.69 -63.34 26.38 -63 24 C-48.48 24 -33.96 24 -19 24 C-19 23.34 -19 22.68 -19 22 C-17.35511706 20.31183067 -15.68662458 18.64646685 -14 17 C-13.34 16.01 -12.68 15.02 -12 14 C-11.34 14 -10.68 14 -10 14 C-9.5359375 13.071875 -9.5359375 13.071875 -9.0625 12.125 C-8.375 10.75 -7.6875 9.375 -7 8 C-6.34 8 -5.68 8 -5 8 C-4.731875 7.4225 -4.46375 6.845 -4.1875 6.25 C-2.98280141 3.9674132 -1.59201885 2.0262058 0 0 Z " fill="#D92027" transform="translate(76,1)"/>
<path d="M0 0 C5.14200135 1.02840027 6.06023743 1.56638255 9.625 5 C13.13418036 8.29083136 16.68529708 11.42607534 20.4375 14.4375 C24.24087503 17.51336588 27.90082652 20.68753166 31.5 24 C38.3952582 30.34205697 45.68775063 36.1502005 53 42 C53 29.46 53 16.92 53 4 C50.69 3.67 48.38 3.34 46 3 C46 2.01 46 1.02 46 0 C53.26 0 60.52 0 68 0 C67.67 1.32 67.34 2.64 67 4 C65.35 4.66 63.7 5.32 62 6 C61.67 24.15 61.34 42.3 61 61 C59.515 61.495 59.515 61.495 58 62 C56.08984375 60.8828125 56.08984375 60.8828125 53.9375 59.125 C53.13957031 58.4753125 52.34164062 57.825625 51.51953125 57.15625 C48.15194175 54.27421992 44.87012851 51.30563516 41.59765625 48.31640625 C38.97906542 45.98133202 36.29323192 43.76495377 33.5625 41.5625 C28.83031599 37.73804099 24.33789929 33.71405706 19.8984375 29.5546875 C16.08248422 26.1913001 12.01514806 23.12289294 8 20 C8 32.21 8 44.42 8 57 C9.98 57.33 11.96 57.66 14 58 C14 59.32 14 60.64 14 62 C7.07 62 0.14 62 -7 62 C-7 60.68 -7 59.36 -7 58 C-3.535 57.505 -3.535 57.505 0 57 C0 38.19 0 19.38 0 0 Z " fill="#1D1718" transform="translate(139,22)"/>
<path d="M0 0 C4.1625612 -0.07453622 8.3247618 -0.12878254 12.48779297 -0.16479492 C13.90192437 -0.17981825 15.31600968 -0.20024305 16.72998047 -0.22631836 C18.77062397 -0.26298954 20.81064792 -0.27979036 22.8515625 -0.29296875 C24.07697754 -0.3086792 25.30239258 -0.32438965 26.56494141 -0.34057617 C31.57971094 0.15662379 34.84459681 2.1270287 38.8125 5.125 C41.74226326 8.97554599 42.3121866 12.20751387 42 17 C40.69897535 20.40744551 39.56327022 22.43672978 37 25 C38.093125 25.70125 39.18625 26.4025 40.3125 27.125 C43.8958249 29.75083727 45.67303128 31.62880892 47 36 C48.22325506 47.98789962 48.22325506 47.98789962 45.125 52.6875 C41.15594788 57.0067626 38.04410755 58.65020627 32.02346802 59.17095947 C29.89927158 59.22962359 27.78492688 59.22538035 25.66015625 59.1953125 C24.89319931 59.1924826 24.12624237 59.18965271 23.33604431 59.18673706 C20.91136379 59.17563475 18.48706691 59.15054967 16.0625 59.125 C14.4082085 59.1149573 12.75391115 59.10583372 11.09960938 59.09765625 C7.06626077 59.07572817 3.0331952 59.04126843 -1 59 C-0.67 58.01 -0.34 57.02 0 56 C1.32 56 2.64 56 4 56 C4 38.51 4 21.02 4 3 C2.35 2.67 0.7 2.34 -1 2 C-0.67 1.34 -0.34 0.68 0 0 Z M16 4 C16 10.93 16 17.86 16 25 C23.53911091 25.32965197 23.53911091 25.32965197 29 22 C31.49005677 19.50994323 31.29703766 18.62529268 31.3125 15.1875 C31.23382789 10.999723 30.7710878 8.30398931 28 5 C24.88196601 3.25464401 24.88196601 3.25464401 16 4 Z M16 29 C16 37.58 16 46.16 16 55 C25.95578546 56.05766863 25.95578546 56.05766863 34.875 52.625 C38.00609092 48.7571818 38.47717264 46.27617123 38.3984375 41.38671875 C37.6828695 37.10032615 35.40330212 34.57339853 32 32 C26.45513209 29.17734079 22.34616611 29 16 29 Z " fill="#1D1718" transform="translate(82,23)"/>
<path d="M0 0 C0.33 0 0.66 0 1 0 C1 14.52 1 29.04 1 44 C-1.64 44 -4.28 44 -7 44 C-7.268125 44.86625 -7.53625 45.7325 -7.8125 46.625 C-10.85869565 55.2826087 -10.85869565 55.2826087 -14.1875 57.375 C-14.785625 57.58125 -15.38375 57.7875 -16 58 C-16.14285714 50.57142857 -16.14285714 50.57142857 -15 47 C-14.34 47 -13.68 47 -13 47 C-13.33 46.34 -13.66 45.68 -14 45 C-16.71446979 44.68758545 -19.33909361 44.48663408 -22.0625 44.375 C-22.82111328 44.33632812 -23.57972656 44.29765625 -24.36132812 44.2578125 C-26.24047195 44.16326438 -28.12020336 44.08053244 -30 44 C-30.27585937 44.73734375 -30.55171875 45.4746875 -30.8359375 46.234375 C-34.12334714 54.04473078 -39.89655576 61.18523218 -46 67 C-46.66 67 -47.32 67 -48 67 C-48 67.66 -48 68.32 -48 69 C-50.64 69 -53.28 69 -56 69 C-56 68.34 -56 67.68 -56 67 C-54.75146711 65.84728475 -53.45031062 64.75104998 -52.125 63.6875 C-48.9896473 61.03962263 -46.99769909 59.11550873 -46 55 C-45.34 55 -44.68 55 -44 55 C-43.731875 54.29875 -43.46375 53.5975 -43.1875 52.875 C-41.9318551 49.8350176 -40.49764877 46.9272226 -39 44 C-42.3 44 -45.6 44 -49 44 C-49 36.74 -49 29.48 -49 22 C-49.66 21.67 -50.32 21.34 -51 21 C-47.49267123 21.58281792 -44.66164171 22.49326267 -41.49609375 24.1015625 C-40.67302734 24.50890625 -39.84996094 24.91625 -39.00195312 25.3359375 C-37.28605807 26.19845901 -35.57252097 27.06568681 -33.86132812 27.9375 C-33.03955078 28.34226562 -32.21777344 28.74703125 -31.37109375 29.1640625 C-30.62786865 29.53998535 -29.88464355 29.9159082 -29.11889648 30.30322266 C-26.55085441 31.14769691 -25.46855997 31.08071896 -23 30 C-21.30957456 28.40732939 -21.30957456 28.40732939 -19.828125 26.3515625 C-19.24957764 25.5980249 -18.67103027 24.8444873 -18.07495117 24.06811523 C-17.47271729 23.26188721 -16.8704834 22.45565918 -16.25 21.625 C-15.63036377 20.81168213 -15.01072754 19.99836426 -14.37231445 19.16040039 C-10.29209745 13.78568883 -6.27613805 8.36337463 -2.35546875 2.87109375 C-1 1 -1 1 0 0 Z " fill="#201917" transform="translate(62,28)"/>
<path d="M0 0 C4.10757963 -0.07489276 8.2148876 -0.12894754 12.32299805 -0.16479492 C13.71662328 -0.17975938 15.11020244 -0.20013851 16.50366211 -0.22631836 C25.79356758 -0.39631663 33.77317974 -0.18154276 41.875 4.75 C45.28044579 8.35576613 46.90323714 11.5577055 47.09765625 16.46484375 C46.75964253 21.94726136 45.77792065 25.8136555 42 30 C36.62505877 33.24736033 32.14972666 34.14901037 25.9375 34.1875 C24.89464844 34.20167969 23.85179687 34.21585938 22.77734375 34.23046875 C20 34 20 34 17 32 C17.11454804 34.87575868 17.2412847 37.75012112 17.375 40.625 C17.4059375 41.43324219 17.436875 42.24148437 17.46875 43.07421875 C17.6952946 47.71838314 18.2592668 51.62693856 20 56 C21.98 56.33 23.96 56.66 26 57 C26 57.99 26 58.98 26 60 C17.09 60 8.18 60 -1 60 C-0.67 59.01 -0.34 58.02 0 57 C1.32 57 2.64 57 4 57 C4 39.18 4 21.36 4 3 C2.35 3 0.7 3 -1 3 C-0.67 2.01 -0.34 1.02 0 0 Z M17 6 C17 13.59 17 21.18 17 29 C20.71062127 30.85531063 25.0446069 29.81471147 29 29 C32.51893809 26.84554811 33.69658383 25.91024852 35 22 C35.41873961 17.69986636 35.4550224 14.06930264 33.75 10.0625 C31.92099202 7.63326952 31.92099202 7.63326952 28 6 C24.37 6 20.74 6 17 6 Z " fill="#1D1718" transform="translate(252,22)"/>
<path d="M0 0 C1.53333984 0.02030273 1.53333984 0.02030273 3.09765625 0.04101562 C5.60699933 0.07619333 8.11606929 0.1299948 10.625 0.1875 C10.625 4.1475 10.625 8.1075 10.625 12.1875 C9.305 12.1875 7.985 12.1875 6.625 12.1875 C6.068125 11.424375 5.51125 10.66125 4.9375 9.875 C1.76585162 6.18903026 -1.62062823 4.97847777 -6.375 4.1875 C-9.22075944 4.79014182 -9.22075944 4.79014182 -11.375 6.1875 C-12.365 6.5175 -13.355 6.8475 -14.375 7.1875 C-13.86596128 11.86234541 -13.28981765 15.92174629 -9.625 19.125 C-8.23410049 20.18067215 -6.81151252 21.1947881 -5.375 22.1875 C-3.60538429 23.41188562 -1.83786331 24.63891611 -0.07519531 25.87329102 C1.1575839 26.73154897 2.39888837 27.57772416 3.64941406 28.40991211 C8.27894898 31.59064034 11.83787627 34.97255956 13.2265625 40.64453125 C13.28517032 46.53461761 11.96833358 50.28725889 8.71875 55.1796875 C3.04479321 60.620758 -2.54469211 61.63726905 -10.25390625 61.5390625 C-11.28386719 61.50554687 -12.31382812 61.47203125 -13.375 61.4375 C-14.96634766 61.41042969 -14.96634766 61.41042969 -16.58984375 61.3828125 C-19.18529109 61.33604768 -21.78026824 61.26431772 -24.375 61.1875 C-24.375 55.9075 -24.375 50.6275 -24.375 45.1875 C-23.385 45.1875 -22.395 45.1875 -21.375 45.1875 C-21.19324219 45.81398437 -21.01148438 46.44046875 -20.82421875 47.0859375 C-20.57285156 47.90320313 -20.32148438 48.72046875 -20.0625 49.5625 C-19.69705078 50.78066406 -19.69705078 50.78066406 -19.32421875 52.0234375 C-18.46131815 54.51934629 -18.46131815 54.51934629 -15.375 56.1875 C-9.47027758 56.97005357 -4.40832875 56.58499691 0.625 53.1875 C3.03332094 49.57501859 3.34860855 48.44875032 2.625 44.1875 C-0.91189423 38.65004998 -5.6943502 35.08161557 -11.1640625 31.609375 C-16.68473565 28.05897742 -21.06885052 24.73104123 -23.0703125 18.26953125 C-23.79164192 13.34044691 -22.1958741 9.50676195 -19.625 5.375 C-13.68884286 -0.39626389 -7.81858893 -0.19672579 0 0 Z " fill="#1D1718" transform="translate(235.375,21.8125)"/>
<path d="M0 0 C14.52 0 29.04 0 44 0 C42.19748891 3.60502218 40.43662575 6.06354484 37.875 9.125 C33.52080178 14.36838618 29.24486515 19.66789418 25 25 C19.54767908 24.63722327 16.07180063 21.36119866 11.9375 18.125 C11.23044922 17.58230469 10.52339844 17.03960937 9.79492188 16.48046875 C8.47468292 15.46642606 7.15720122 14.44877527 5.84350586 13.42626953 C4.01828887 11.91933358 4.01828887 11.91933358 1.76782227 10.88232422 C0 9 0 9 0 0 Z " fill="#201918" transform="translate(13,25)"/>
<path d="M0 0 C3.05639686 1.93429311 3.84723732 2.55968404 5.0625 6.0625 C4.97702061 11.44770188 3.11448553 15.62050493 0 20 C-2.17578125 21.29296875 -2.17578125 21.29296875 -4 22 C-4.14285714 14.57142857 -4.14285714 14.57142857 -3 11 C-2.34 11 -1.68 11 -1 11 C-1.495 10.01 -1.495 10.01 -2 9 C-4.71446979 8.68758545 -7.33909361 8.48663408 -10.0625 8.375 C-11.20041992 8.31699219 -11.20041992 8.31699219 -12.36132812 8.2578125 C-14.24047195 8.16326438 -16.12020336 8.08053244 -18 8 C-18.27585937 8.73734375 -18.55171875 9.4746875 -18.8359375 10.234375 C-22.12334714 18.04473078 -27.89655576 25.18523218 -34 31 C-34.66 31 -35.32 31 -36 31 C-36 31.66 -36 32.32 -36 33 C-38.64 33 -41.28 33 -44 33 C-44 32.34 -44 31.68 -44 31 C-42.75146711 29.84728475 -41.45031062 28.75104998 -40.125 27.6875 C-36.9896473 25.03962263 -34.99769909 23.11550873 -34 19 C-33.34 19 -32.68 19 -32 19 C-31.731875 18.29875 -31.46375 17.5975 -31.1875 16.875 C-29.9318551 13.8350176 -28.49764877 10.9272226 -27 8 C-26.34 8 -25.68 8 -25 8 C-24.731875 7.0925 -24.46375 6.185 -24.1875 5.25 C-23.0902583 2.24702272 -22.15380764 0.32611225 -20 -2 C-13.13653762 -4.28782079 -6.52804705 -2.65714478 0 0 Z " fill="#EEE301" transform="translate(50,64)"/>
<path d="M0 0 C6.75 -0.125 6.75 -0.125 9 1 C9.625 4.0625 9.625 4.0625 10 7 C10.99 4.69 11.98 2.38 13 0 C13.99 0 14.98 0 16 0 C16.99 2.31 17.98 4.62 19 7 C19.33 4.69 19.66 2.38 20 0 C23.25 -0.3125 23.25 -0.3125 27 0 C29.4375 2.5 29.4375 2.5 31 5 C31.66 3.35 32.32 1.7 33 0 C33.99 0 34.98 0 36 0 C36.99 2.31 37.98 4.62 39 7 C39.33 4.69 39.66 2.38 40 0 C40.99 0 41.98 0 43 0 C43.66 0.99 44.32 1.98 45 3 C45.66 2.01 46.32 1.02 47 0 C47.99 0 48.98 0 50 0 C50 4.29 50 8.58 50 13 C48.68 13 47.36 13 46 13 C45.34 11.68 44.68 10.36 44 9 C43.67 10.32 43.34 11.64 43 13 C41.02 13 39.04 13 37 13 C36.505 12.01 36.505 12.01 36 11 C35.01 11 34.02 11 33 11 C32.67 11.66 32.34 12.32 32 13 C31.360625 12.814375 30.72125 12.62875 30.0625 12.4375 C29.0415625 12.2209375 29.0415625 12.2209375 28 12 C27.67 12.33 27.34 12.66 27 13 C25.31391034 13.07205511 23.62499341 13.08386068 21.9375 13.0625 C21.01839844 13.05347656 20.09929688 13.04445313 19.15234375 13.03515625 C18.44207031 13.02355469 17.73179688 13.01195313 17 13 C16.67 12.34 16.34 11.68 16 11 C15.01 11 14.02 11 13 11 C12.67 11.66 12.34 12.32 12 13 C8.04 13 4.08 13 0 13 C0 8.71 0 4.42 0 0 Z M3 3 C3 3.66 3 4.32 3 5 C3.99 5 4.98 5 6 5 C6 4.34 6 3.68 6 3 C5.01 3 4.02 3 3 3 Z M23 3 C23 5.31 23 7.62 23 10 C23.99 10 24.98 10 26 10 C27.00217064 6.41672247 27.00217064 6.41672247 26 3 C25.01 3 24.02 3 23 3 Z M14 5 C15 7 15 7 15 7 Z M34 5 C35 7 35 7 35 7 Z M46 5 C47 7 47 7 47 7 Z M3 8 C3 8.66 3 9.32 3 10 C4.32 10 5.64 10 7 10 C7 9.34 7 8.68 7 8 C5.68 8 4.36 8 3 8 Z M29 9 C30 11 30 11 30 11 Z " fill="#1D1717" transform="translate(12,100)"/>
<path d="M0 0 C14.66666667 0 29.33333333 0 44 0 C44 4.29 44 8.58 44 13 C43.01 13 42.02 13 41 13 C41 9.7 41 6.4 41 3 C39.02 3 37.04 3 35 3 C35 3.66 35 4.32 35 5 C36.65 5 38.3 5 40 5 C40 5.99 40 6.98 40 8 C38.35 8 36.7 8 35 8 C35 9.65 35 11.3 35 13 C32.69 13 30.38 13 28 13 C28 9.7 28 6.4 28 3 C27.01 3 26.02 3 25 3 C25 6.3 25 9.6 25 13 C24.01 13 23.02 13 22 13 C22 9.7 22 6.4 22 3 C21.01 3 20.02 3 19 3 C17.84162374 7.05431692 18.16308743 9.21812119 20 13 C18.68 13 17.36 13 16 13 C15.71125 12.360625 15.4225 11.72125 15.125 11.0625 C14.17176549 8.84793921 14.17176549 8.84793921 12 8 C12 9.65 12 11.3 12 13 C8.04 13 4.08 13 0 13 C0 8.71 0 4.42 0 0 Z M3 3 C3 3.66 3 4.32 3 5 C4.65 5 6.3 5 8 5 C8 5.99 8 6.98 8 8 C6.35 8 4.7 8 3 8 C3 8.66 3 9.32 3 10 C4.98 10 6.96 10 9 10 C9 7.69 9 5.38 9 3 C7.02 3 5.04 3 3 3 Z M12 3 C12 3.66 12 4.32 12 5 C13.32 5 14.64 5 16 5 C16 4.34 16 3.68 16 3 C14.68 3 13.36 3 12 3 Z " fill="#1D1717" transform="translate(153,100)"/>
<path d="M0 0 C0.66 0.66 1.32 1.32 2 2 C2.33 1.34 2.66 0.68 3 0 C4.875 0.3125 4.875 0.3125 7 1 C7.66 1.99 8.32 2.98 9 4 C9.33 2.68 9.66 1.36 10 0 C10.99 0 11.98 0 13 0 C13.33 1.98 13.66 3.96 14 6 C14.66 4.02 15.32 2.04 16 0 C17.32 0 18.64 0 20 0 C20.66 1.98 21.32 3.96 22 6 C22.33 4.02 22.66 2.04 23 0 C23.99 0 24.98 0 26 0 C26 3.3 26 6.6 26 10 C27.65 10 29.3 10 31 10 C31 10.99 31 11.98 31 13 C27.7 13 24.4 13 21 13 C20.67 12.01 20.34 11.02 20 10 C18.68 10 17.36 10 16 10 C16 10.99 16 11.98 16 13 C13.1875 13.3125 13.1875 13.3125 10 13 C8.125 10.5 8.125 10.5 7 8 C6.67 9.65 6.34 11.3 6 13 C5.38125 12.814375 4.7625 12.62875 4.125 12.4375 C1.95839822 11.76313824 1.95839822 11.76313824 0 13 C-3 13.1875 -3 13.1875 -6 13 C-8 11 -8 11 -8.3125 7.0625 C-8.23719217 4.46908648 -8.15247863 3.25680612 -6.8125 1 C-4.37613976 -0.34419875 -2.74026253 -0.35131571 0 0 Z M-4 3 C-5.35618499 4.12534105 -5.35618499 4.12534105 -5.0625 7.0625 C-5.041875 8.031875 -5.02125 9.00125 -5 10 C-3.35 9.67 -1.7 9.34 0 9 C0 7.35 0 5.7 0 4 C-1.94603274 3.40929986 -1.94603274 3.40929986 -4 3 Z " fill="#1C1717" transform="translate(108,100)"/>
<path d="M0 0 C4 1 4 1 6 4 C6.33 2.68 6.66 1.36 7 0 C7.99 0 8.98 0 10 0 C10.33 1.98 10.66 3.96 11 6 C11.66 4.02 12.32 2.04 13 0 C14.32 0 15.64 0 17 0 C17.66 2.64 18.32 5.28 19 8 C19.66 7.67 20.32 7.34 21 7 C20.79375 6.21625 20.5875 5.4325 20.375 4.625 C20.25125 3.75875 20.1275 2.8925 20 2 C22 0 22 0 25.125 -0.125 C26.07375 -0.08375 27.0225 -0.0425 28 0 C28.33 1.65 28.66 3.3 29 5 C29.33 3.35 29.66 1.7 30 0 C30.99 0 31.98 0 33 0 C33 4.29 33 8.58 33 13 C31.68 12.67 30.36 12.34 29 12 C28.67 12.33 28.34 12.66 28 13 C26.31391034 13.07205511 24.62499341 13.08386068 22.9375 13.0625 C22.01839844 13.05347656 21.09929687 13.04445313 20.15234375 13.03515625 C19.44207031 13.02355469 18.73179688 13.01195313 18 13 C17.67 12.01 17.34 11.02 17 10 C15.68 10 14.36 10 13 10 C13 10.99 13 11.98 13 13 C10.1875 13.25 10.1875 13.25 7 13 C5.125 11 5.125 11 4 9 C3.67 10.32 3.34 11.64 3 13 C2.01 13 1.02 13 0 13 C0 8.71 0 4.42 0 0 Z M23 3 C23.33 3.66 23.66 4.32 24 5 C24.99 4.67 25.98 4.34 27 4 C25.68 3.67 24.36 3.34 23 3 Z M23 8 C23 8.66 23 9.32 23 10 C24.32 9.67 25.64 9.34 27 9 C25.68 8.67 24.36 8.34 23 8 Z " fill="#1D1717" transform="translate(66,100)"/>
<path d="M0 0 C0.99 0 1.98 0 3 0 C3.33 0.99 3.66 1.98 4 3 C4.66 2.01 5.32 1.02 6 0 C7.32 0 8.64 0 10 0 C9 2 8 4 7 6 C7.99 7.485 7.99 7.485 9 9 C10.32 6.03 11.64 3.06 13 0 C13.99 0 14.98 0 16 0 C17.25664978 2.90600261 18 4.79604584 18 8 C18.66 7.67 19.32 7.34 20 7 C19.79375 6.401875 19.5875 5.80375 19.375 5.1875 C19 3 19 3 21 0 C24 -0.1875 24 -0.1875 27 0 C27.66 0 28.32 0 29 0 C29.99 0 30.98 0 32 0 C32 4.29 32 8.58 32 13 C30.68 12.67 29.36 12.34 28 12 C27.67 12.33 27.34 12.66 27 13 C25.31391034 13.07205511 23.62499341 13.08386068 21.9375 13.0625 C21.01839844 13.05347656 20.09929687 13.04445313 19.15234375 13.03515625 C18.44207031 13.02355469 17.73179687 13.01195313 17 13 C16.67 12.01 16.34 11.02 16 10 C14.68 10 13.36 10 12 10 C12 10.99 12 11.98 12 13 C9.6875 13.25 9.6875 13.25 7 13 C5.1875 11 5.1875 11 4 9 C3.67 10.32 3.34 11.64 3 13 C2.01 13 1.02 13 0 13 C0 8.71 0 4.42 0 0 Z M22 3 C22.33 3.66 22.66 4.32 23 5 C23.99 4.67 24.98 4.34 26 4 C24.68 3.67 23.36 3.34 22 3 Z M28 4 C28 7 28 7 28 7 Z M22 8 C22 8.66 22 9.32 22 10 C23.32 9.67 24.64 9.34 26 9 C24.68 8.67 23.36 8.34 22 8 Z " fill="#1D1717" transform="translate(198,100)"/>
<path d="M0 0 C3.33333333 0 6.66666667 0 10 0 C12.00915697 -0.06378276 14.01831138 -0.12771889 16.02734375 -0.1953125 C18 0 18 0 21 2 C21.66 1.34 22.32 0.68 23 0 C26.5625 0.25 26.5625 0.25 30 1 C31.50934217 4.01868434 31.17510672 6.67297229 31 10 C30.01 11.485 30.01 11.485 29 13 C26.0625 13.1875 26.0625 13.1875 23 13 C22.01 13 21.02 13 20 13 C19.01 13 18.02 13 17 13 C16.34 11.35 15.68 9.7 15 8 C14.34 8 13.68 8 13 8 C13 9.65 13 11.3 13 13 C12.01 13 11.02 13 10 13 C9.67 11.02 9.34 9.04 9 7 C8.67 7.33 8.34 7.66 8 8 C6.33382885 8.04063832 4.66611905 8.042721 3 8 C3 9.65 3 11.3 3 13 C2.01 13 1.02 13 0 13 C0 8.71 0 4.42 0 0 Z M3 3 C3 3.66 3 4.32 3 5 C4.32 4.67 5.64 4.34 7 4 C5.68 3.67 4.36 3.34 3 3 Z M13 3 C13 3.66 13 4.32 13 5 C14.32 5 15.64 5 17 5 C17 4.34 17 3.68 17 3 C15.68 3 14.36 3 13 3 Z M24 3 C22.70366379 4.06645115 22.70366379 4.06645115 22.9375 6.5625 C22.958125 7.366875 22.97875 8.17125 23 9 C24.94603274 9.59070014 24.94603274 9.59070014 27 10 C28.29633621 8.93354885 28.29633621 8.93354885 28.0625 6.4375 C28.041875 5.633125 28.02125 4.82875 28 4 C26.05396726 3.40929986 26.05396726 3.40929986 24 3 Z M19 5 C18.67 5.99 18.34 6.98 18 8 C18.66 8.66 19.32 9.32 20 10 C20 8.35 20 6.7 20 5 C19.67 5 19.34 5 19 5 Z " fill="#1C1717" transform="translate(235,100)"/>
<path d="M0 0 C6.66666667 0 13.33333333 0 20 0 C21.2375 -0.061875 21.2375 -0.061875 22.5 -0.125 C25 0 25 0 27 2 C27.23046875 4.34765625 27.23046875 4.34765625 27.1875 7.0625 C27.18105469 7.96097656 27.17460937 8.85945313 27.16796875 9.78515625 C27 12 27 12 26 13 C24.65732587 13.08631874 23.31025678 13.10706473 21.96484375 13.09765625 C21.15595703 13.09443359 20.34707031 13.09121094 19.51367188 13.08789062 C18.66353516 13.07951172 17.81339844 13.07113281 16.9375 13.0625 C16.08349609 13.05798828 15.22949219 13.05347656 14.34960938 13.04882812 C12.23304337 13.03700373 10.11651315 13.01906769 8 13 C8 9.7 8 6.4 8 3 C6.35 3 4.7 3 3 3 C3 3.66 3 4.32 3 5 C4.32 5 5.64 5 7 5 C7 5.99 7 6.98 7 8 C5.68 8 4.36 8 3 8 C3 9.65 3 11.3 3 13 C2.01 13 1.02 13 0 13 C0 8.71 0 4.42 0 0 Z M17 2 C15.02 2.33 13.04 2.66 11 3 C11 3.66 11 4.32 11 5 C12.98 5 14.96 5 17 5 C17 5.99 17 6.98 17 8 C15.02 8 13.04 8 11 8 C11 8.66 11 9.32 11 10 C13.31 10 15.62 10 18 10 C18 9.34 18 8.68 18 8 C18.99 7.67 19.98 7.34 21 7 C20.34 6.67 19.68 6.34 19 6 C17.875 3.9375 17.875 3.9375 17 2 Z M21 3 C21.33 3.66 21.66 4.32 22 5 C22.66 5 23.32 5 24 5 C24 4.34 24 3.68 24 3 C23.01 3 22.02 3 21 3 Z M21 8 C21 8.66 21 9.32 21 10 C21.99 10 22.98 10 24 10 C24 9.34 24 8.68 24 8 C23.01 8 22.02 8 21 8 Z " fill="#1D1717" transform="translate(267,100)"/>
<path d="M0 0 C2.375 1.5625 2.375 1.5625 4 4 C3.9375 7.625 3.9375 7.625 3 11 C-0.24153166 13.1610211 -1.23692901 13.64247553 -5 13 C-7.375 10.8125 -7.375 10.8125 -9 8 C-8.9303003 5.07261258 -8.40278716 3.58404138 -6.75 1.1875 C-4.29122834 -0.4809522 -2.91471407 -0.49763411 0 0 Z " fill="#EADE02" transform="translate(38,30)"/>
<path d="M0 0 C0.66 0.66 1.32 1.32 2 2 C1.5625 4.0625 1.5625 4.0625 1 6 C1.33 6.33 1.66 6.66 2 7 C2.125 9.5 2.125 9.5 2 12 C1 13 1 13 -2.5625 13.0625 C-3.696875 13.041875 -4.83125 13.02125 -6 13 C-6.66 11.35 -7.32 9.7 -8 8 C-5.61435923 8.57584432 -3.33317216 9.22227595 -1 10 C-1 9.34 -1 8.68 -1 8 C-1.804375 7.855625 -2.60875 7.71125 -3.4375 7.5625 C-6 7 -6 7 -7 6 C-7.04063832 4.33382885 -7.042721 2.66611905 -7 1 C-4.48718205 -0.25640898 -2.78302919 -0.20872719 0 0 Z M-4 3 C-3.67 3.66 -3.34 4.32 -3 5 C-2.34 5 -1.68 5 -1 5 C-1 4.34 -1 3.68 -1 3 C-1.99 3 -2.98 3 -4 3 Z " fill="#1D1717" transform="translate(150,100)"/>
<path d="M0 0 C1.14662109 0.04253906 1.14662109 0.04253906 2.31640625 0.0859375 C3.07824219 0.09882812 3.84007812 0.11171875 4.625 0.125 C7.05500969 0.48718515 8.75492904 1.25138328 10.87890625 2.4609375 C10.87890625 3.1209375 10.87890625 3.7809375 10.87890625 4.4609375 C5.59890625 4.4609375 0.31890625 4.4609375 -5.12109375 4.4609375 C-2.12109375 0.4609375 -2.12109375 0.4609375 0 0 Z " fill="#221D18" transform="translate(37.12109375,67.5390625)"/>
<path d="M0 0 C0.99 0 1.98 0 3 0 C3 4.29 3 8.58 3 13 C2.01 13 1.02 13 0 13 C0 8.71 0 4.42 0 0 Z " fill="#1C1718" transform="translate(295,100)"/>
</svg>
